<svg width="80" height="99" viewBox="0 0 80 99" fill="none" xmlns="http://www.w3.org/2000/svg">
<path d="M77.494 33.5583C70.9398 37.6085 66.8916 44.5516 66.8916 52.2662C66.8916 60.945 72.0964 68.8525 80 72.1311C78.4578 77.1456 76.1446 81.7743 73.253 86.0174C69.012 91.9961 64.5783 98.1678 58.0241 98.1678C51.4699 98.1678 49.5422 94.3105 41.8313 94.3105C34.3133 94.3105 31.6145 98.3607 25.4458 98.3607C19.2771 98.3607 15.0361 92.7676 10.2169 85.8245C3.85542 76.1813 0.192771 64.9952 0 53.2305C0 34.1369 12.3373 23.9151 24.6747 23.9151C31.2289 23.9151 36.6265 28.1581 40.6747 28.1581C44.5301 28.1581 50.6988 23.7223 58.0241 23.7223C65.7349 23.5294 73.0602 27.1938 77.494 33.5583ZM54.5542 15.622C57.8313 11.7647 59.5663 6.94311 59.759 1.92864C59.759 1.35005 59.759 0.578592 59.5663 0C53.9759 0.578592 48.7711 3.27869 45.1084 7.5217C41.8313 11.1861 39.9036 15.8149 39.7108 20.8293C39.7108 21.4079 39.7108 21.9865 39.9036 22.5651C40.2892 22.5651 40.8675 22.758 41.253 22.758C46.4578 22.3722 51.2771 19.6721 54.5542 15.622Z" fill="white"/>
</svg>
