<svg width="102" height="103" viewBox="0 0 102 103" fill="none" xmlns="http://www.w3.org/2000/svg">
<path d="M10.7485 49.7592C11.058 48.3555 12.302 47.3559 13.7394 47.3559H87.8218C89.2592 47.3559 90.5032 48.3555 90.8127 49.7592L98.3234 83.8213C98.7449 85.7327 97.2898 87.5435 95.3325 87.5435H6.22868C4.27137 87.5435 2.81633 85.7327 3.23779 83.8213L10.7485 49.7592Z" fill="#9EA697" stroke="#42463F" stroke-width="2.49556"/>
<line x1="50.5031" y1="46.1081" x2="50.5031" y2="88.7913" stroke="#42463F" stroke-width="2.49556"/>
<path d="M62.3735 66.2937C62.3735 70.8504 57.4925 75.0388 50.7806 75.0388C44.0688 75.0388 39.1877 70.8504 39.1877 66.2937C39.1877 61.737 44.0688 57.5486 50.7806 57.5486C57.4925 57.5486 62.3735 61.737 62.3735 66.2937Z" stroke="#42463F" stroke-width="2.49556"/>
<path d="M9.57221 58.2964H18.9585C20.8073 58.2964 22.2003 59.9779 21.8563 61.7944L19.836 72.4635C19.5723 73.856 18.3555 74.864 16.9382 74.864H6.25659" stroke="#42463F" stroke-width="2.49556"/>
<path d="M91.9888 58.2964H82.6025C80.7537 58.2964 79.3607 59.9779 79.7047 61.7944L81.725 72.4635C81.9887 73.856 83.2055 74.864 84.6228 74.864H95.5313" stroke="#42463F" stroke-width="2.49556"/>
<path d="M50.7806 25.0118L68.3026 35.1284V52.7651C68.3025 53.5543 68.0948 54.3297 67.7001 55.0132C67.3055 55.6967 66.7379 56.2642 66.0544 56.6589L53.0287 64.1811C52.3452 64.5758 51.5698 64.7835 50.7806 64.7835C49.9913 64.7835 49.216 64.5758 48.5324 64.1811L35.5067 56.6589C34.8232 56.2642 34.2556 55.6967 33.861 55.0132C33.4664 54.3297 33.2586 53.5543 33.2586 52.7651V35.1284L50.7806 25.0118Z" fill="#FFA480" stroke="#42463F" stroke-width="2.49556" stroke-linecap="round" stroke-linejoin="round"/>
<path d="M50.7805 34.0044V45.2451L41.0461 50.8654M50.7805 45.2451L60.5149 50.8654L50.7805 45.2451Z" fill="#FFA480"/>
<path d="M50.7805 34.0044V45.2451M50.7805 45.2451L41.0461 50.8654M50.7805 45.2451L60.5149 50.8654" stroke="#42463F" stroke-width="2.49556" stroke-linecap="round" stroke-linejoin="round"/>
<path d="M16.1798 60.8112C15.3392 60.9565 15.3392 62.1574 16.1798 62.3027L16.1774 62.3003C17.6666 62.5572 19.0451 63.2496 20.137 64.2893C21.2289 65.329 21.9847 66.6688 22.308 68.1377L22.3559 68.3665C22.5379 69.1932 23.7209 69.198 23.9101 68.3736L23.9724 68.1068C24.3082 66.6456 25.0703 65.3156 26.1631 64.2839C27.256 63.2522 28.6308 62.5646 30.115 62.3075C30.9603 62.1598 30.9603 60.9518 30.115 60.8064C28.6305 60.5492 27.2554 59.8612 26.1626 58.829C25.0697 57.7968 24.3078 56.4664 23.9724 55.0048L23.9101 54.7355C23.7209 53.9111 22.5379 53.9159 22.3559 54.7427L22.3056 54.9738C21.9827 56.4421 21.2276 57.7814 20.1366 58.821C19.0456 59.8606 17.6681 60.5535 16.1798 60.8112Z" fill="white"/>
<path d="M70.255 71.4855C69.748 71.5732 69.748 72.2975 70.255 72.3851L70.2535 72.3837C71.1517 72.5386 71.9832 72.9563 72.6418 73.5834C73.3004 74.2105 73.7562 75.0185 73.9512 75.9045L73.9801 76.0425C74.0899 76.5411 74.8034 76.544 74.9175 76.0468L74.9551 75.8858C75.1576 75.0045 75.6173 74.2024 76.2764 73.5801C76.9355 72.9578 77.7648 72.5431 78.66 72.388C79.1698 72.2989 79.1698 71.5703 78.66 71.4827C77.7646 71.3275 76.9352 70.9126 76.2761 70.29C75.6169 69.6674 75.1573 68.865 74.9551 67.9834L74.9175 67.821C74.8034 67.3238 74.0899 67.3267 73.9801 67.8253L73.9498 67.9647C73.755 68.8503 73.2995 69.6581 72.6415 70.2852C71.9835 70.9122 71.1527 71.3301 70.255 71.4855Z" fill="white"/>
<path d="M61.6022 20.044C60.8605 20.1722 60.8605 21.2319 61.6022 21.3601L61.6001 21.358C62.9142 21.5847 64.1307 22.1957 65.0942 23.1132C66.0577 24.0306 66.7247 25.2129 67.01 26.5091L67.0522 26.711C67.2128 27.4405 68.2568 27.4448 68.4237 26.7173L68.4787 26.4818C68.775 25.1924 69.4475 24.0188 70.4118 23.1084C71.3762 22.1979 72.5894 21.5912 73.8991 21.3643C74.645 21.234 74.645 20.168 73.8991 20.0398C72.5891 19.8127 71.3757 19.2057 70.4113 18.2949C69.447 17.384 68.7746 16.21 68.4787 14.9202L68.4237 14.6826C68.2568 13.9552 67.2128 13.9594 67.0522 14.6889L67.0079 14.8929C66.7229 16.1885 66.0565 17.3704 65.0938 18.2878C64.1311 19.2052 62.9156 19.8166 61.6022 20.044Z" fill="#9EA697"/>
</svg>
