<svg width="441" height="330" viewBox="0 0 441 330" fill="none" xmlns="http://www.w3.org/2000/svg">
<path d="M56.9783 147.261H383.521C389.857 147.261 395.34 151.667 396.705 157.854L429.81 307.994C431.668 316.419 425.255 324.401 416.627 324.401H23.8724C15.2449 324.401 8.83141 316.419 10.6891 307.994L43.795 157.854C45.1592 151.667 50.6425 147.261 56.9783 147.261Z" fill="#B4D1EB" stroke="#17324D" stroke-width="11"/>
<line x1="219.027" y1="141.761" x2="219.027" y2="329.901" stroke="#17324D" stroke-width="11"/>
<path d="M271.35 230.735C271.35 250.821 249.835 269.282 220.25 269.282C190.665 269.282 169.15 250.821 169.15 230.735C169.15 210.65 190.665 192.188 220.25 192.188C249.835 192.188 271.35 210.65 271.35 230.735Z" stroke="#17324D" stroke-width="11"/>
<path d="M38.6105 195.485H79.9836C88.1329 195.485 94.2728 202.896 92.7566 210.903L83.8517 257.931C82.6894 264.069 77.3256 268.512 71.0786 268.512H23.9958" stroke="#17324D" stroke-width="11"/>
<path d="M401.889 195.485H360.515C352.366 195.485 346.226 202.896 347.742 210.903L356.647 257.931C357.81 264.069 363.173 268.512 369.42 268.512H417.503" stroke="#17324D" stroke-width="11"/>
<path d="M220.25 48.7719L297.484 93.3643V171.104C297.484 174.583 296.568 178 294.828 181.013C293.089 184.026 290.587 186.527 287.574 188.267L230.159 221.424C227.146 223.163 223.729 224.079 220.25 224.079C216.771 224.079 213.353 223.163 210.34 221.424L152.925 188.267C149.912 186.527 147.41 184.026 145.671 181.013C143.932 178 143.016 174.583 143.016 171.104V93.3643L220.25 48.7719Z" fill="white" stroke="#17324D" stroke-width="11" stroke-linecap="round" stroke-linejoin="round"/>
<path d="M220.25 88.4096V137.957L177.342 162.73M220.25 137.957L263.157 162.73Z" fill="white"/>
<path d="M220.25 88.4096V137.957M220.25 137.957L177.342 162.73M220.25 137.957L263.157 162.73" stroke="#17324D" stroke-width="11" stroke-linecap="round" stroke-linejoin="round"/>
<path d="M67.7353 206.569C64.0303 207.21 64.0303 212.503 67.7353 213.144L67.7248 213.133C74.2889 214.265 80.3651 217.318 85.178 221.9C89.991 226.483 93.3226 232.389 94.7475 238.864L94.9586 239.872C95.7609 243.516 100.975 243.537 101.809 239.903L102.084 238.727C103.564 232.286 106.923 226.424 111.74 221.876C116.557 217.329 122.617 214.298 129.159 213.165C132.885 212.514 132.885 207.189 129.159 206.548C122.616 205.414 116.555 202.382 111.738 197.832C106.921 193.283 103.562 187.418 102.084 180.976L101.809 179.789C100.975 176.155 95.7609 176.176 94.9586 179.82L94.737 180.839C93.3134 187.311 89.985 193.214 85.1761 197.797C80.3672 202.38 74.2956 205.433 67.7353 206.569Z" fill="white"/>
<path d="M306.09 253.62C303.855 254.007 303.855 257.199 306.09 257.585L306.083 257.579C310.042 258.262 313.707 260.103 316.61 262.867C319.513 265.631 321.522 269.193 322.382 273.098L322.509 273.706C322.993 275.904 326.138 275.917 326.641 273.725L326.807 273.016C327.699 269.131 329.726 265.596 332.631 262.853C335.536 260.11 339.191 258.282 343.137 257.598C345.385 257.205 345.385 253.994 343.137 253.607C339.191 252.924 335.535 251.095 332.629 248.35C329.724 245.606 327.698 242.069 326.807 238.183L326.641 237.468C326.138 235.276 322.993 235.289 322.509 237.487L322.376 238.101C321.517 242.004 319.509 245.565 316.609 248.329C313.708 251.093 310.046 252.935 306.09 253.62Z" fill="white"/>
<path d="M267.95 26.8744C264.68 27.4398 264.68 32.1105 267.95 32.6758L267.94 32.6666C273.733 33.6656 279.094 36.359 283.342 40.403C287.589 44.447 290.529 49.6583 291.786 55.3718L291.972 56.2615C292.68 59.4773 297.282 59.4958 298.018 56.2893L298.26 55.2513C299.566 49.5679 302.53 44.395 306.781 40.3819C311.032 36.3688 316.379 33.6944 322.152 32.6944C325.44 32.1198 325.44 27.4212 322.152 26.8559C316.378 25.8552 311.029 23.1795 306.779 19.1646C302.528 15.1498 299.564 9.97482 298.26 4.28969L298.018 3.24247C297.282 0.0359349 292.68 0.0544671 291.972 3.27027L291.777 4.16921C290.521 9.8802 287.583 15.0896 283.34 19.1334C279.096 23.1772 273.739 25.872 267.95 26.8744Z" fill="#B4D1EB"/>
</svg>
