<svg width="102" height="103" viewBox="0 0 102 103" fill="none" xmlns="http://www.w3.org/2000/svg">
<path d="M30.8665 82.2457V72.1971H40.9662" stroke="#42463F" stroke-width="2.49556" stroke-linecap="round" stroke-linejoin="round"/>
<path d="M76.8816 51.3181C77.9532 57.0067 77.0963 62.8882 74.4452 68.0399C71.7942 73.1916 67.4991 77.3218 62.2339 79.7825C56.9687 82.2432 51.0314 82.8951 45.3536 81.6359C39.6758 80.3767 34.5788 77.2777 30.8625 72.8252M25.2506 60.9209C24.179 55.2323 25.0359 49.3508 27.687 44.1991C30.338 39.0474 34.6331 34.9172 39.8983 32.4565C45.1635 29.9958 51.1008 29.3439 56.7786 30.6031C62.4564 31.8623 67.5534 34.9613 71.2698 39.4139" stroke="#42463F" stroke-width="2.49556" stroke-linecap="round" stroke-linejoin="round"/>
<path d="M71.2657 29.9934V40.0419H61.1659" stroke="#42463F" stroke-width="2.49556" stroke-linecap="round" stroke-linejoin="round"/>
<path d="M39.2151 54.9364C37.7857 55.1836 37.7857 57.2257 39.2151 57.4729L39.2111 57.4688C41.7435 57.9056 44.0878 59.0832 45.9447 60.8513C47.8016 62.6193 49.0869 64.8977 49.6367 67.3958L49.7181 67.7847C50.0276 69.1907 52.0394 69.1988 52.3612 67.7969L52.467 67.3431C53.0381 64.8582 54.3341 62.5966 56.1926 60.842C58.051 59.0874 60.389 57.9182 62.913 57.481C64.3506 57.2297 64.3506 55.1755 62.913 54.9283C60.3884 54.4908 58.0501 53.3209 56.1916 51.5656C54.3331 49.8103 53.0374 47.5477 52.467 45.0621L52.3612 44.6043C52.0394 43.2023 50.0276 43.2104 49.7181 44.6164L49.6326 45.0095C49.0834 47.5064 47.7993 49.784 45.9439 51.552C44.0886 53.3199 41.7461 54.4982 39.2151 54.9364Z" fill="#FFA480" stroke="#42463F" stroke-width="2.49556" stroke-linecap="round" stroke-linejoin="round"/>
<path d="M95.65 73.4093V85.1593H92.8187V73.4093H95.65ZM94.2343 71.8049C93.6838 71.8049 93.2355 71.6398 92.8894 71.3094C92.5434 70.9791 92.3704 70.5544 92.3704 70.0354C92.3704 69.532 92.5434 69.1152 92.8894 68.7848C93.2355 68.4545 93.6838 68.2894 94.2343 68.2894C94.7849 68.2894 95.2331 68.4545 95.5792 68.7848C95.9252 69.0994 96.0983 69.5163 96.0983 70.0354C96.0983 70.5544 95.9252 70.9791 95.5792 71.3094C95.2331 71.6398 94.7849 71.8049 94.2343 71.8049Z" fill="#42463F"/>
<path d="M90.723 82.6583V85.1593H89.0006C88.2456 85.1593 87.6007 85.0335 87.0659 84.7818C86.5468 84.5144 86.1614 84.129 85.9097 83.6257C85.2963 84.2548 84.5727 84.7189 83.7391 85.0177C82.9054 85.3009 81.9223 85.4424 80.7898 85.4424C79.0752 85.4424 77.7461 85.1357 76.8023 84.5222C75.8585 83.8931 75.3867 83.0122 75.3867 81.8797C75.3867 80.9359 75.7406 80.173 76.4484 79.591C77.172 78.9933 78.1944 78.6236 79.5157 78.4821L85.5558 77.8214C85.3671 76.4844 84.1638 75.8159 81.9459 75.8159C80.7976 75.8159 79.901 75.9811 79.2561 76.3114C78.6112 76.6417 78.2888 77.0979 78.2888 77.6799V77.7507H75.4574V77.6799C75.4574 76.7833 75.7248 75.9889 76.2596 75.2968C76.7945 74.6047 77.5495 74.0699 78.5247 73.6924C79.5157 73.3149 80.6639 73.1262 81.9695 73.1262C83.9986 73.1262 85.5794 73.5823 86.712 74.4946C87.8445 75.3912 88.4108 76.6496 88.4108 78.2697V81.5258C88.4108 81.8875 88.5209 82.1707 88.7411 82.3752C88.9613 82.5639 89.2759 82.6583 89.6848 82.6583H90.723ZM80.719 82.9414C81.9144 82.9414 82.929 82.7605 83.7627 82.3987C84.6121 82.037 85.2176 81.5258 85.5794 80.8651V80.1337L80.1291 80.7235C78.855 80.8651 78.218 81.2505 78.218 81.8797C78.218 82.5875 79.0517 82.9414 80.719 82.9414Z" fill="#42463F"/>
<path d="M4.08368 17.3969H21.3011V33.3845H28.9874M25.7638 68.6334H16.5083V84.6549H10.3592M82.8959 59.7982H90.5822V41.0435H97.0388C97.0388 41.0435 97.0388 25.1584 97.0388 17.677" stroke="#9EA697" stroke-width="2.49556" stroke-linecap="round" stroke-linejoin="round"/>
</svg>
