<svg width="422" height="308" viewBox="0 0 422 308" fill="none" xmlns="http://www.w3.org/2000/svg">
<path d="M124.281 291.69V247.398H168.799" stroke="#17324D" stroke-width="11" stroke-linecap="round" stroke-linejoin="round"/>
<path d="M327.108 155.367C331.831 180.441 328.054 206.366 316.368 229.074C304.683 251.782 285.751 269.987 262.543 280.833C239.335 291.68 213.164 294.553 188.137 289.003C163.111 283.452 140.644 269.793 124.263 250.167M99.5267 197.695C94.8033 172.62 98.5806 146.695 110.266 123.988C121.951 101.28 140.883 83.0747 164.091 72.2284C187.3 61.3821 213.47 58.5086 238.497 64.0589C263.524 69.6092 285.99 83.269 302.371 102.895" stroke="#17324D" stroke-width="11" stroke-linecap="round" stroke-linejoin="round"/>
<path d="M302.354 61.3712V105.663H257.835" stroke="#17324D" stroke-width="11" stroke-linecap="round" stroke-linejoin="round"/>
<path d="M161.08 171.316C154.779 172.405 154.779 181.407 161.08 182.496L161.062 182.478C172.225 184.404 182.558 189.594 190.743 197.387C198.928 205.181 204.593 215.224 207.016 226.235L207.375 227.949C208.74 234.146 217.607 234.182 219.025 228.003L219.492 226.002C222.009 215.05 227.722 205.081 235.914 197.347C244.105 189.613 254.411 184.459 265.536 182.532C271.873 181.424 271.873 172.37 265.536 171.28C254.408 169.352 244.101 164.195 235.909 156.458C227.718 148.721 222.006 138.748 219.492 127.792L219.025 125.774C217.607 119.594 208.74 119.63 207.375 125.827L206.998 127.559C204.578 138.565 198.917 148.605 190.739 156.398C182.561 164.191 172.236 169.384 161.08 171.316Z" fill="#B4D1EB" stroke="#17324D" stroke-width="11" stroke-linecap="round" stroke-linejoin="round"/>
<path d="M409.835 252.741V304.533H397.355V252.741H409.835ZM403.595 245.669C401.169 245.669 399.193 244.941 397.667 243.485C396.142 242.029 395.379 240.157 395.379 237.869C395.379 235.651 396.142 233.813 397.667 232.357C399.193 230.901 401.169 230.173 403.595 230.173C406.022 230.173 407.998 230.901 409.523 232.357C411.049 233.744 411.811 235.581 411.811 237.869C411.811 240.157 411.049 242.029 409.523 243.485C407.998 244.941 406.022 245.669 403.595 245.669Z" fill="#17324D"/>
<path d="M388.118 293.509V304.533H380.526C377.198 304.533 374.355 303.979 371.998 302.869C369.71 301.691 368.011 299.992 366.902 297.773C364.198 300.547 361.009 302.592 357.334 303.909C353.659 305.157 349.326 305.781 344.334 305.781C336.777 305.781 330.918 304.429 326.758 301.725C322.598 298.952 320.518 295.069 320.518 290.077C320.518 285.917 322.078 282.555 325.198 279.989C328.387 277.355 332.894 275.725 338.718 275.101L365.342 272.189C364.51 266.296 359.206 263.349 349.43 263.349C344.369 263.349 340.417 264.077 337.574 265.533C334.731 266.989 333.31 269 333.31 271.565V271.877H320.83V271.565C320.83 267.613 322.009 264.112 324.366 261.061C326.723 258.011 330.051 255.653 334.35 253.989C338.718 252.325 343.779 251.493 349.534 251.493C358.478 251.493 365.446 253.504 370.438 257.525C375.43 261.477 377.926 267.024 377.926 274.165V288.517C377.926 290.112 378.411 291.36 379.382 292.261C380.353 293.093 381.739 293.509 383.542 293.509H388.118ZM344.022 294.757C349.291 294.757 353.763 293.96 357.438 292.365C361.182 290.771 363.851 288.517 365.446 285.605V282.381L341.422 284.981C335.806 285.605 332.998 287.304 332.998 290.077C332.998 293.197 336.673 294.757 344.022 294.757Z" fill="#17324D"/>
<path d="M6.22656 5.84802H82.1179V76.3186H115.998M101.789 231.69H60.9921V302.31H33.888M353.618 192.746H387.498V110.078H415.957C415.957 110.078 415.957 40.0594 415.957 7.0828" stroke="#B4D1EB" stroke-width="11" stroke-linecap="round" stroke-linejoin="round"/>
</svg>
