<svg width="91" height="90" viewBox="0 0 91 90" fill="none" xmlns="http://www.w3.org/2000/svg">
<g clip-path="url(#clip0_3512_73)">
<path fill-rule="evenodd" clip-rule="evenodd" d="M90.5 44.9986C90.5 54.5035 87.5548 63.3221 82.5225 70.5851C80.5563 73.4262 78.2721 76.0281 75.718 78.3404C75.5661 78.481 75.4114 78.616 75.2567 78.7511C74.8432 79.0295 74.3284 79.1702 73.718 79.1702C72.8207 79.1702 72.1315 78.8692 71.6561 78.2616C71.1779 77.654 70.9416 76.6864 70.9416 75.353V65.5359H61.1413V53.8397H46.289L54.5984 44.18V40.4163H38.6097V29.339H32.5872C32.5872 30.6723 32.3481 31.64 31.8699 32.2476C31.3973 32.8551 30.7081 33.1561 29.808 33.1561C28.9079 33.1561 28.2215 32.8551 27.7461 32.2476C27.2679 31.6428 27.0316 30.6723 27.0316 29.339V19.5246H20.9022V19.5415H16.8994V10.2565C24.674 3.84718 34.6363 0 45.4986 0C70.3509 0 90.4972 20.1463 90.4972 44.9986H90.5ZM38.6069 19.5359H32.5844V24.4417H38.6069V19.5359ZM45.4986 89.9944C54.1895 89.9944 62.3067 87.5309 69.1865 83.2618C68.4197 82.9103 67.7398 82.4466 67.147 81.8762C65.5886 80.3685 64.8094 78.256 64.8122 75.5387V70.2926H55.0091V58.5964H38.3143V54.8298L46.6237 45.1702H32.5816V37.8115C31.7208 38.0141 30.7785 38.1182 29.7517 38.1182C26.9641 38.1182 24.7925 37.3643 23.2342 35.8566C21.6758 34.3516 20.8994 32.2391 20.8994 29.5218V24.2926H10.77V16.382L10.7672 16.3854C4.35373 24.1603 0.5 34.1294 0.5 44.9986C0.5 69.8537 20.6463 90 45.4986 89.9944ZM76.5 65.5471H82.5225V70.4529H76.5V65.5471Z" fill="white"/>
</g>
<defs>
<clipPath id="clip0_3512_73">
<rect width="90" height="90" fill="white" transform="translate(0.5)"/>
</clipPath>
</defs>
</svg>
