<svg width="199" height="199" viewBox="0 0 199 199" fill="none" xmlns="http://www.w3.org/2000/svg">
<g clip-path="url(#clip0_3512_53)">
<path d="M199 99.4969C199 120.513 192.488 140.012 181.361 156.071C177.013 162.353 171.963 168.107 166.315 173.219C165.979 173.53 165.637 173.829 165.295 174.127C161.122 177.816 156.631 181.149 151.879 184.098C136.666 193.539 118.716 198.988 99.4969 198.988C44.5456 199 0 154.454 0 99.4969C0 75.4639 8.52102 53.4212 22.702 36.2299C26.7697 31.2914 31.3101 26.751 36.2548 22.6833C53.4461 8.50858 75.4763 0 99.4969 0C154.448 0 198.994 44.5456 198.994 99.4969H199Z" fill="#5A6054"/>
<path d="M181.361 144.932H168.044V155.779H181.361V144.932Z" fill="#E6E6E6"/>
<path d="M165.295 174.134C161.122 177.822 156.631 181.156 151.879 184.104C150.181 183.326 148.676 182.3 147.364 181.037C143.918 177.704 142.195 173.033 142.201 167.024V155.425H120.526V129.563H83.6117V121.235L101.985 99.8763H84.2523H70.9359V83.6055C69.0327 84.0533 66.9491 84.2835 64.6789 84.2835C58.5151 84.2835 53.7135 82.6166 50.2678 79.2828C46.8221 75.9553 45.1054 71.2842 45.1054 65.276V53.7135H22.7082V36.2175C26.7759 31.279 31.3163 26.7386 36.261 22.6709V43.2084H45.1116V43.1711H58.6644V64.8717C58.6644 67.8199 59.1869 69.9657 60.2442 71.3029C61.2953 72.6464 62.813 73.3119 64.8033 73.3119C66.7936 73.3119 68.3174 72.6464 69.3623 71.3029C70.4197 69.9594 70.9483 67.8199 70.9483 64.8717H84.2648V89.365H119.618V97.687L101.245 119.045H134.085V144.907H155.754V166.614C155.754 169.562 156.277 171.702 157.334 173.045C158.385 174.389 159.909 175.054 161.893 175.054C163.243 175.054 164.381 174.743 165.295 174.127V174.134Z" fill="#E6E6E6"/>
<path d="M84.2586 43.1959H70.9421V54.0431H84.2586V43.1959Z" fill="#E6E6E6"/>
<path d="M181.361 144.932H168.044V155.779H181.361V144.932Z" fill="#E6E6E6"/>
<path d="M84.2586 43.1959H70.9421V54.0431H84.2586V43.1959Z" fill="#E6E6E6"/>
<path d="M181.361 144.932H168.044V155.779H181.361V144.932Z" fill="#E6E6E6"/>
</g>
<defs>
<clipPath id="clip0_3512_53">
<rect width="199" height="199" fill="white"/>
</clipPath>
</defs>
</svg>
