<svg width="300" height="93" viewBox="0 0 300 93" fill="none" xmlns="http://www.w3.org/2000/svg">
<path d="M147.459 31.3359C150.17 32.588 152.449 34.6324 154.002 37.206C155.565 39.8782 156.357 42.9395 156.29 46.0438V46.696C156.354 49.8043 155.55 52.8677 153.97 55.5338C152.401 58.1022 150.128 60.1531 147.427 61.4366C144.333 62.8908 140.951 63.605 137.54 63.5237C133.799 63.6313 130.124 62.51 127.066 60.3278V73.8127H117.711V30.0477H126.421L126.679 32.8523C129.801 30.4364 133.644 29.1709 137.573 29.265C140.98 29.1974 144.359 29.9052 147.459 31.3359ZM146.653 46.0112C146.709 44.8721 146.5 43.7356 146.043 42.6933C145.585 41.651 144.892 40.732 144.019 40.0106C142.251 38.5757 139.802 37.8582 136.67 37.8582C134.75 37.8341 132.84 38.1543 131.03 38.8039C129.707 39.2564 128.499 39.9998 127.493 40.9808C127.353 41.1262 127.243 41.2985 127.17 41.4875C127.096 41.6765 127.061 41.8785 127.066 42.0815V50.5687C127.057 50.7967 127.095 51.024 127.179 51.2361C127.262 51.4482 127.388 51.6402 127.549 51.7998C128.566 52.7326 129.754 53.453 131.046 53.9195C132.83 54.5879 134.72 54.9196 136.622 54.8979C139.754 54.8979 142.203 54.1804 143.97 52.7455C144.849 52.0144 145.545 51.0844 146.003 50.0307C146.461 48.977 146.667 47.829 146.605 46.6797L146.653 46.0112Z" fill="white"/>
<path d="M169.351 61.5349C166.564 60.3615 164.185 58.3747 162.518 55.8278C160.878 53.1835 160.037 50.1114 160.101 46.99V46.1747C160.026 43.0196 160.842 39.9084 162.454 37.2064C164.093 34.6243 166.463 32.6015 169.254 31.4015C172.598 29.9805 176.2 29.2915 179.825 29.3796C183.42 29.2851 186.992 29.9747 190.3 31.4015C193.067 32.6146 195.412 34.6359 197.036 37.2064C198.652 39.9068 199.468 43.0192 199.389 46.1747V46.99C199.465 50.1041 198.648 53.1738 197.036 55.8278C195.404 58.3673 193.058 60.3548 190.3 61.5349C186.988 62.9425 183.417 63.6207 179.825 63.5242C176.235 63.6065 172.667 62.9289 169.351 61.5349ZM187.077 52.8275C187.946 52.1184 188.636 51.2104 189.09 50.1784C189.544 49.1464 189.749 48.02 189.688 46.8922V46.1747C189.753 45.0209 189.555 43.8674 189.107 42.804C188.66 41.7406 187.976 40.7959 187.109 40.0437C185.39 38.6088 182.941 37.8913 179.761 37.8913C176.538 37.8913 174.073 38.6006 172.348 40.0111C170.624 41.4215 169.77 43.4761 169.77 46.1747V46.8922C169.709 48.02 169.914 49.1464 170.368 50.1784C170.822 51.2104 171.511 52.1184 172.38 52.8275C174.121 54.2217 176.586 54.9147 179.761 54.9147C182.936 54.9147 185.369 54.2461 187.109 52.8275H187.077Z" fill="white"/>
<path d="M259.497 38.4118V30.0631H246.09V21.3884H237.001V27.6498C237.075 28.3239 236.89 29.0008 236.485 29.5413C235.951 29.9509 235.282 30.1377 234.616 30.0631H223.972C220.388 29.9389 216.861 30.9914 213.916 33.0634L213.659 30.0631H204.957V62.7402H214.239V42.105C214.241 41.8844 214.287 41.6665 214.372 41.4636C214.458 41.2608 214.582 41.077 214.738 40.9228C216.425 39.2542 219.095 38.4172 222.747 38.4118H236.743V51.4565C236.743 54.9351 237.818 57.6853 239.966 59.7073C242.115 61.7292 245.037 62.7402 248.733 62.7402H257.596V54.4568H249.99C248.948 54.5293 247.92 54.1903 247.121 53.511C246.774 53.1573 246.506 52.733 246.334 52.2664C246.162 51.7997 246.089 51.3013 246.122 50.8043V38.4118H259.497Z" fill="white"/>
<path d="M267.345 60.6216C263.972 58.6921 262.285 55.9419 262.285 52.3709V52.0447H271.245V52.3709C271.245 53.5884 272.051 54.4689 273.662 55.0124C275.274 55.5559 277.917 55.8277 281.591 55.8277C287.602 55.8277 290.61 54.958 290.615 53.2187V52.8927C290.601 52.5511 290.482 52.2225 290.274 51.9533C290.066 51.6841 289.779 51.4879 289.455 51.3925C288.105 50.914 286.694 50.6393 285.265 50.5772L276.95 49.7619C272.18 49.2836 268.688 48.2835 266.475 46.7616C265.424 46.063 264.569 45.1015 263.993 43.9702C263.417 42.8389 263.14 41.5762 263.188 40.3045V39.6522C263.188 36.391 264.799 33.8473 268.022 32.0211C271.245 30.1948 275.704 29.2817 281.397 29.2817C287.306 29.2817 291.872 30.2383 295.095 32.1515C296.571 32.9484 297.8 34.1452 298.642 35.6081C299.484 37.0711 299.908 38.7423 299.865 40.4349V40.8262H290.905V40.4349C290.905 39.2228 290.142 38.3423 288.617 37.7934C287.091 37.2444 284.61 36.9726 281.172 36.9781C279.008 36.9149 276.844 37.1119 274.726 37.5651C273.219 37.9564 272.47 38.519 272.47 39.2609V39.6522C272.477 39.9817 272.582 40.3015 272.772 40.5693C272.962 40.8371 273.227 41.0404 273.533 41.1524C274.654 41.6129 275.84 41.8882 277.046 41.9677L285.491 42.783C290.556 43.3265 294.241 44.3483 296.545 45.8485C297.645 46.5397 298.543 47.5137 299.149 48.671C299.755 49.8283 300.046 51.1275 299.994 52.4361V53.0883C299.994 56.3876 298.361 58.953 295.095 60.7847C291.829 62.6164 287.296 63.5295 281.494 63.5241C275.435 63.5241 270.719 62.5566 267.345 60.6216Z" fill="white"/>
<path d="M66.1192 26.5823L23.3665 2.06635C20.9879 0.698591 18.2963 -0.0138419 15.5605 0.000140895C12.8247 0.0141237 10.1404 0.754016 7.77552 2.14601C5.41068 3.53801 3.44798 5.5334 2.0836 7.9329C0.71921 10.3324 0.000765166 13.0521 4.34401e-07 15.8204V77.0491C-0.000644494 79.8181 0.716836 82.5388 2.08065 84.9394C3.44446 87.3401 5.4069 89.3366 7.77198 90.7295C10.1371 92.1225 12.822 92.8632 15.5585 92.8775C18.295 92.8919 20.9873 92.1794 23.3665 90.8113L69.2373 64.4609C69.5973 64.2545 69.865 63.9159 69.985 63.5152C70.105 63.1145 70.0681 62.6824 69.8819 62.3085C66.7536 55.7865 65.1335 48.6295 65.1443 41.3799C65.1383 37.024 65.7183 32.6876 66.8685 28.4901C66.9785 28.1333 66.9642 27.7492 66.8278 27.4019C66.6913 27.0546 66.4412 26.7652 66.1192 26.5823ZM17.8392 62.7406H8.55707V30.0636H17.8392V62.7406ZM17.388 24.6826C16.2431 25.7282 14.7391 26.2784 13.1981 26.2154C11.6567 26.2819 10.1512 25.7312 9.00813 24.6826C8.47183 24.1694 8.05056 23.5458 7.77257 22.8538C7.49459 22.1619 7.36636 21.4177 7.39665 20.6714C7.36636 19.9251 7.49459 19.1809 7.77257 18.489C8.05056 17.797 8.47183 17.1734 9.00813 16.6602C10.1512 15.6116 11.6567 15.0609 13.1981 15.1274C14.7506 15.0521 16.2691 15.6034 17.4202 16.6602C17.952 17.1769 18.3703 17.8011 18.6479 18.4922C18.9256 19.1833 19.0563 19.9258 19.0317 20.6714C19.0563 21.42 18.9224 22.1652 18.6389 22.857C18.3554 23.5489 17.9288 24.1713 17.388 24.6826ZM62.2839 62.7406H52.9372V46.6304C52.9372 43.804 52.1745 41.6299 50.649 40.108C49.1235 38.5861 46.8996 37.8361 43.9774 37.8578C42.0609 37.8287 40.1707 38.3124 38.4983 39.2601C37.7719 39.6689 37.1004 40.1704 36.5001 40.7521C35.9403 41.3137 35.4976 41.9835 35.1987 42.7216C34.8997 43.4597 34.7505 44.2511 34.7598 45.0487V62.708H25.4131V30.031H34.0829L34.3408 33.1617C37.177 30.6452 40.8082 29.3407 45.2344 29.2483C50.8209 29.2483 55.0537 30.705 57.9329 33.6183C60.8121 36.5316 62.2516 40.8581 62.2516 46.5978L62.2839 62.7406Z" fill="white"/>
<path d="M76.9898 60.524C73.38 58.0074 71.5752 54.3114 71.5752 49.4359V48.7837H81.1152V49.4359C81.1152 51.5231 82.1465 53.1102 84.2092 54.1973C86.2719 55.2843 89.2799 55.8279 93.2334 55.8279C96.7626 55.8279 99.4484 55.4474 101.291 54.6864C103.12 53.9282 104.03 52.8031 104.03 51.3274V50.8709C104.044 50.3192 103.907 49.7744 103.634 49.2967C103.361 48.819 102.963 48.427 102.483 48.1641C100.762 47.3277 98.9063 46.8086 97.0044 46.6313L86.2396 45.066C76.9575 43.6691 72.3164 39.7992 72.3164 33.4562V32.8039C72.274 30.8958 72.7393 29.0112 73.6635 27.3474C74.5877 25.6836 75.9369 24.3018 77.5699 23.3465C81.0775 21.0908 85.9872 19.9603 92.2988 19.9549C99.0026 19.9549 104.106 21.1724 107.608 23.6074C111.11 26.0424 112.872 29.5753 112.894 34.2062V34.7933H103.378V34.2062C103.378 30.4015 99.6821 28.4991 92.2908 28.4991C89.7249 28.389 87.1602 28.7424 84.7169 29.5427C82.9765 30.2357 82.1063 31.263 82.1063 32.6083V33.13C82.105 33.6199 82.2404 34.1002 82.497 34.5156C82.7536 34.931 83.1207 35.2646 83.5565 35.4781C85.1328 36.2182 86.8223 36.6814 88.5522 36.8478L99.3491 38.3479C104.296 39.0926 107.938 40.4296 110.275 42.3592C111.442 43.3307 112.368 44.5654 112.978 45.9643C113.588 47.3631 113.865 48.8873 113.788 50.4143V51.0665C113.788 55.2408 111.962 58.502 108.309 60.8501C104.656 63.1981 99.4994 64.3613 92.8386 64.3396C85.8985 64.3178 80.6156 63.046 76.9898 60.524Z" fill="white"/>
</svg>
