<svg width="616" height="669" viewBox="0 0 616 669" fill="none" xmlns="http://www.w3.org/2000/svg">
<g clip-path="url(#clip0_3549_1126)">
<path d="M564.272 593.495H615.976V595.085C615.976 618.353 609.286 636.418 595.908 649.353C582.529 662.239 563.886 668.67 539.954 668.67C516.022 668.67 497.379 662.239 484 649.353C470.621 636.442 463.932 618.353 463.932 595.085V550.163H379.796V450.01H236.47V417.758L307.807 335.044H238.957H187.254V272.033C179.864 273.767 171.774 274.658 162.959 274.658C139.027 274.658 120.384 268.203 107.005 255.292C93.6268 242.406 86.9374 224.317 86.9374 201.049V156.271H0V0.67041H52.5971V115.637H86.9616V115.492H139.583V199.531C139.583 210.948 141.636 219.258 145.717 224.437C149.798 229.64 155.69 232.217 163.418 232.217C171.146 232.217 177.063 229.64 181.144 224.437C185.225 219.234 187.278 210.948 187.278 199.531H238.981V294.385H376.246V326.613L304.909 409.328H432.417V509.481H516.553V593.544C516.553 604.961 518.582 613.247 522.663 618.449C526.744 623.652 532.661 626.229 540.389 626.229C548.116 626.229 554.009 623.652 558.114 618.449C562.195 613.247 564.248 604.961 564.248 593.544V593.495H564.272Z" fill="#364035"/>
</g>
<defs>
<clipPath id="clip0_3549_1126">
<rect width="616" height="668" fill="white" transform="translate(0 0.67041)"/>
</clipPath>
</defs>
</svg>
