<svg width="102" height="102" viewBox="0 0 102 102" fill="none" xmlns="http://www.w3.org/2000/svg">
<circle cx="40.7078" cy="89.0735" r="3.53528" fill="#9EA697"/>
<circle cx="16.0789" cy="31.7619" r="3.53528" fill="#9EA697"/>
<circle cx="49.771" cy="97.0173" r="3.53528" fill="#9EA697"/>
<circle cx="58.4199" cy="69.2411" r="3.53528" fill="#9EA697"/>
<circle cx="97.8474" cy="47.0481" r="3.53528" fill="#9EA697"/>
<path d="M97.812 47.8646L50.6325 97.4795L40.3163 88.7751L59.4816 68.8727L16.9126 32.5692" stroke="#9EA697" stroke-width="2.49556"/>
<rect x="17.3268" y="42.0085" width="36.9389" height="23.1859" rx="3.2896" fill="#FFA480" stroke="#42463F" stroke-width="2.49556"/>
<rect x="32.7206" y="28.9018" width="16.443" height="9.81973" rx="3.2896" fill="#FFA480" stroke="#42463F" stroke-width="2.49556"/>
<rect x="21.4668" y="51.1789" width="16.443" height="9.81973" rx="3.2896" fill="#FFA480" stroke="#42463F" stroke-width="2.49556"/>
<path d="M63.4449 45.8113L68.4232 44.0476C68.497 44.0215 68.5745 44.0762 68.5745 44.1546V63.0483C68.5745 63.1266 68.497 63.1814 68.4232 63.1552L63.4449 61.3916C62.1316 60.9263 61.2538 59.6841 61.2538 58.2908V48.9121C61.2538 47.5187 62.1316 46.2766 63.4449 45.8113Z" fill="#FFA480" stroke="#42463F" stroke-width="2.49556"/>
<rect x="55.0834" y="48.2454" width="5.62403" height="10.712" fill="#FFA480" stroke="#42463F" stroke-width="2.49556"/>
<rect x="31.0528" y="70.4889" width="30.0988" height="21.6676" rx="3.2896" transform="rotate(90 31.0528 70.4889)" fill="white" stroke="#42463F" stroke-width="2.49556"/>
<rect x="91.2553" y="68.7126" width="13.3987" height="19.3123" rx="3.2896" transform="rotate(90 91.2553 68.7126)" fill="#FFA480" stroke="#42463F" stroke-width="2.49556"/>
<rect x="88.3576" y="56.1897" width="22.1287" height="13.517" rx="3.2896" transform="rotate(90 88.3576 56.1897)" fill="#9EA697" stroke="#42463F" stroke-width="2.49556"/>
<path d="M81.544 81.3774V93.6998" stroke="#42463F" stroke-width="2.49556" stroke-linecap="round"/>
<path d="M79.5637 60.4227L79.5637 73.7356" stroke="#42463F" stroke-width="2.49556" stroke-linecap="round"/>
<path d="M83.7311 60.4227L83.7311 73.7356" stroke="#42463F" stroke-width="2.49556" stroke-linecap="round"/>
<path d="M20.219 78.0563H13.6195" stroke="#42463F" stroke-width="2.49556" stroke-linecap="round"/>
<path d="M26.6627 78.0563H25.0283" stroke="#42463F" stroke-width="2.49556" stroke-linecap="round"/>
<path d="M20.219 82.3665H13.6195" stroke="#42463F" stroke-width="2.49556" stroke-linecap="round"/>
<path d="M26.6627 82.3665H25.0283" stroke="#42463F" stroke-width="2.49556" stroke-linecap="round"/>
<path d="M20.219 86.6765H13.6195" stroke="#42463F" stroke-width="2.49556" stroke-linecap="round"/>
<path d="M26.6627 86.6765H25.0283" stroke="#42463F" stroke-width="2.49556" stroke-linecap="round"/>
<path d="M20.219 90.9866H13.6195" stroke="#42463F" stroke-width="2.49556" stroke-linecap="round"/>
<path d="M26.6627 90.9866H25.0283" stroke="#42463F" stroke-width="2.49556" stroke-linecap="round"/>
</svg>
