<svg width="60" height="60" viewBox="0 0 60 60" fill="none" xmlns="http://www.w3.org/2000/svg">
<path d="M15 22.5H11.25C9.5924 22.5 8.00269 21.8415 6.83058 20.6694C5.65848 19.4973 5 17.9076 5 16.25C5 14.5924 5.65848 13.0027 6.83058 11.8306C8.00269 10.6585 9.5924 10 11.25 10H15" stroke="#00239F" stroke-width="2" stroke-linecap="round" stroke-linejoin="round"/>
<path d="M45 22.5H48.75C50.4076 22.5 51.9973 21.8415 53.1694 20.6694C54.3415 19.4973 55 17.9076 55 16.25C55 14.5924 54.3415 13.0027 53.1694 11.8306C51.9973 10.6585 50.4076 10 48.75 10H45" stroke="#00239F" stroke-width="2" stroke-linecap="round" stroke-linejoin="round"/>
<path d="M10 55H50" stroke="#00239F" stroke-width="2" stroke-linecap="round" stroke-linejoin="round"/>
<path d="M25 36.65V42.5C25 43.875 23.825 44.95 22.575 45.525C19.625 46.875 17.5 50.6 17.5 55" stroke="#00239F" stroke-width="2" stroke-linecap="round" stroke-linejoin="round"/>
<path d="M35 36.65V42.5C35 43.875 36.175 44.95 37.425 45.525C40.375 46.875 42.5 50.6 42.5 55" stroke="#00239F" stroke-width="2" stroke-linecap="round" stroke-linejoin="round"/>
<path d="M45 5H15V22.5C15 26.4782 16.5804 30.2936 19.3934 33.1066C22.2064 35.9196 26.0218 37.5 30 37.5C33.9782 37.5 37.7936 35.9196 40.6066 33.1066C43.4196 30.2936 45 26.4782 45 22.5V5Z" stroke="#00239F" stroke-width="2" stroke-linecap="round" stroke-linejoin="round"/>
</svg>
