<svg width="200" height="86" viewBox="0 0 200 86" fill="none" xmlns="http://www.w3.org/2000/svg">
<path d="M78.8577 42.5663V14.3561H87.6753C93.487 14.3561 97.7956 17.8698 97.7956 23.7929C97.7956 29.8165 93.5872 33.4306 87.6753 33.4306H84.2685V42.6667H78.8577V42.5663ZM84.2685 28.1098H87.3747C90.0801 28.1098 92.0842 26.6039 92.0842 23.7929C92.0842 20.982 90.0801 19.5765 87.3747 19.5765H84.2685V28.1098ZM170.441 73.6879C166.433 73.6879 161.423 71.4792 161.423 64.5522V54.6133H166.533V64.251C166.533 67.4635 167.936 68.869 170.441 68.869C172.745 68.869 174.349 67.2627 174.349 64.251V54.6133H179.459V64.5522C179.459 71.4792 174.449 73.6879 170.441 73.6879ZM126.753 73.6879C121.844 73.6879 117.635 69.1702 117.635 63.8494C117.635 58.629 121.844 54.2118 126.753 54.2118C129.459 54.2118 131.363 55.2157 132.465 56.9224L132.966 54.5129H137.475V73.0855H132.966L132.465 70.6761C131.363 72.4831 129.258 73.6879 126.753 73.6879ZM127.755 58.9302C125.05 58.9302 122.946 61.0384 122.946 63.8494C122.946 66.56 125.05 68.6682 127.755 68.6682C130.461 68.6682 132.465 66.56 132.465 63.8494C132.565 61.0384 130.461 58.9302 127.755 58.9302ZM161.122 23.9937H166.232V42.5663H161.122V23.9937ZM163.727 21.4839C161.924 21.4839 160.621 20.0784 160.621 18.3718C160.621 16.5647 162.024 15.1592 163.727 15.1592C165.531 15.1592 166.934 16.5647 166.934 18.3718C166.834 20.0784 165.431 21.4839 163.727 21.4839ZM153.507 31.6235C153.507 29.6157 152.405 28.3106 150.701 28.3106C148.697 28.3106 147.695 29.5153 147.695 31.6235V42.5663H142.585V31.6235C142.585 29.6157 141.483 28.3106 139.78 28.3106C137.776 28.3106 136.774 29.5153 136.774 31.6235V42.5663H131.663V23.9937H136.172L136.673 26.4031C136.673 26.4031 137.776 23.4918 141.182 23.4918C143.287 23.4918 145.09 24.3953 146.293 26.3027L146.393 26.5035L146.493 26.3027C148.297 23.6926 150.501 23.4918 151.804 23.4918C155.711 23.4918 158.417 26.5035 158.417 30.72V42.5663H153.307V31.6235H153.507ZM188.878 42.5663V23.9937H193.287L193.788 26.7043C194.589 24.9976 196.293 23.7929 198.497 23.7929C198.998 23.7929 199.499 23.8933 199.9 23.9937V28.9129C199.299 28.8125 198.697 28.7122 198.096 28.7122C195.591 28.7122 193.888 30.218 193.888 33.2298V42.5663H188.878ZM99.499 42.5663V23.9937H103.908L104.409 26.7043C105.21 24.9976 106.914 23.7929 109.118 23.7929C109.619 23.7929 110.12 23.8933 110.521 23.9937V28.9129C109.92 28.8125 109.319 28.7122 108.717 28.7122C106.212 28.7122 104.509 30.218 104.509 33.2298V42.5663H99.499ZM78.8577 73.1859V45.578H84.2685V67.9655H96.0922V73.1859H78.8577ZM107.014 73.6879C101.303 73.6879 97.0942 69.7726 97.0942 63.9498C97.0942 58.7294 100.902 54.1114 106.814 54.1114C111.323 54.1114 115.832 57.5247 115.832 63.8494C115.832 64.3514 115.832 64.9537 115.731 65.6565H102.305C102.806 67.7647 104.609 69.1702 106.914 69.1702C109.018 69.1702 110.521 68.3671 111.824 67.062L114.93 70.2745C113.026 72.3828 110.12 73.6879 107.014 73.6879ZM106.713 58.629C104.609 58.629 102.806 59.8337 102.405 61.942H110.922C110.521 59.9341 108.818 58.629 106.713 58.629ZM191.082 73.6879C185.371 73.6879 181.162 69.7726 181.162 63.9498C181.162 58.7294 184.97 54.1114 190.882 54.1114C195.391 54.1114 199.9 57.5247 199.9 63.8494C199.9 64.3514 199.9 64.9537 199.8 65.6565H186.373C186.874 67.7647 188.677 69.1702 190.982 69.1702C193.086 69.1702 194.589 68.3671 195.892 67.062L198.998 70.2745C197.094 72.3828 194.188 73.6879 191.082 73.6879ZM190.882 58.629C188.778 58.629 186.974 59.8337 186.573 61.942H195.09C194.589 59.9341 192.886 58.629 190.882 58.629ZM178.056 43.0682C172.345 43.0682 168.136 39.1529 168.136 33.3302C168.136 28.1098 171.944 23.4918 177.856 23.4918C182.365 23.4918 186.874 26.9051 186.874 33.2298C186.874 33.7318 186.874 34.3341 186.774 35.0369H173.347C173.848 37.1451 175.651 38.5506 177.956 38.5506C180.06 38.5506 181.563 37.7475 182.866 36.4424L185.972 39.6549C183.968 41.8635 181.062 43.0682 178.056 43.0682ZM177.755 28.0094C175.651 28.0094 173.848 29.2141 173.447 31.3224H181.964C181.563 29.3145 179.759 28.0094 177.755 28.0094ZM120.741 43.0682C115.03 43.0682 110.822 39.1529 110.822 33.3302C110.822 28.1098 114.629 23.4918 120.541 23.4918C125.05 23.4918 129.559 26.9051 129.559 33.2298C129.559 33.7318 129.559 34.3341 129.459 35.0369H116.032C116.533 37.1451 118.337 38.5506 120.641 38.5506C122.745 38.5506 124.248 37.7475 125.551 36.4424L128.657 39.6549C126.653 41.8635 123.848 43.0682 120.741 43.0682ZM120.441 28.0094C118.337 28.0094 116.533 29.2141 116.132 31.3224H124.649C124.248 29.3145 122.545 28.0094 120.441 28.0094ZM149.499 58.9302C146.794 58.9302 144.689 61.0384 144.689 63.8494C144.689 66.56 146.794 68.6682 149.499 68.6682C152.204 68.6682 154.309 66.56 154.309 63.8494C154.309 61.0384 152.104 58.9302 149.499 58.9302ZM154.008 56.9224L154.509 54.5129H159.018V72.2824C159.018 75.7961 158.016 78.2055 155.812 80.0126C154.108 81.3176 151.804 82.3216 148.998 82.3216C145.19 82.3216 142.385 81.0165 140.18 78.8078L142.986 74.8926C144.389 76.1976 146.192 77.4024 148.597 77.4024C152.405 77.4024 154.008 75.4949 154.008 72.7843V71.4792C152.505 73.0855 150.701 73.6879 148.697 73.6879C143.487 73.6879 139.379 69.371 139.379 63.8494C139.379 58.4282 143.587 54.2118 148.798 54.2118C151.002 54.3122 152.906 55.3161 154.008 56.9224ZM14.3286 7.02745C18.036 8.73412 20.3407 10.8424 20.7415 11.2439C20.5411 10.24 19.8397 5.72235 19.4389 2.81098C21.5431 4.31686 26.5531 7.83059 28.1563 8.9349C28.7575 6.82667 31.0621 0 31.0621 0C31.0621 0 35.1703 6.82667 35.9719 7.93098C36.8737 7.02745 41.7835 1.40549 43.0862 0C43.2866 3.21255 43.5872 7.83059 43.6874 8.53333C43.988 8.23216 45.8918 5.52157 48.998 3.01177C47.5952 5.72235 46.994 9.53726 46.6934 12.6494C43.5872 11.7459 40.2805 11.2439 36.8737 11.2439C30.3607 11.2439 24.1483 12.9506 18.8377 16.0627C17.8356 13.051 16.3326 9.43686 14.3286 7.02745ZM52.505 45.3773V40.6588C52.505 40.6588 50.4008 39.9561 48.1964 38.2494C43.6874 38.9522 38.2765 43.4698 38.2765 43.4698C38.2765 43.4698 40.0801 46.9835 42.0841 50.7984C45.5912 51.3004 50.8016 46.7827 52.505 45.3773ZM57.014 53.9106C57.014 53.9106 56.6132 51.9027 55.1102 50.0957L51.6032 50.1961C51.6032 50.1961 46.8938 54.3122 43.988 54.4126C43.988 54.4126 45.5912 57.4243 46.3928 58.9302C47.996 58.629 50.8016 57.3239 51.9038 56.0188C51.9038 56.0188 52.6052 58.4282 52.505 61.3396C54.008 60.4361 56.2124 57.9263 57.014 53.9106ZM58.4168 38.3498C56.6132 39.8557 55.1102 40.6588 55.1102 40.6588V45.3773C56.4128 46.7827 57.6152 47.9875 58.517 50.0957C60.4208 46.9835 60.02 42.2651 58.4168 38.3498ZM59.1182 31.9247C59.2184 30.72 58.9178 28.7122 57.2144 26.7043C55.2104 24.3953 50 20.6808 47.5952 19.7773C47.5952 19.7773 47.3948 22.1867 46.5932 23.291C41.6833 19.6769 39.2785 18.8737 39.2785 18.8737C33.8677 19.6769 30.4609 21.7851 28.5571 23.3914L30.1603 24.7969C26.9539 25.8008 24.8497 28.6118 24.8497 28.6118L27.7555 29.1137C27.7555 29.1137 27.4549 32.5271 31.6633 34.6353C35.2705 36.4424 40.4809 34.2337 45.3908 36.1412C42.1843 32.4267 39.9799 30.72 39.9799 30.72C39.9799 30.72 38.6773 30.4188 37.7755 30.4188C36.6733 30.4188 34.9699 30.6196 33.1663 29.9169C32.2645 29.6157 31.2625 28.9129 30.4609 28.411C30.4609 28.411 32.6653 26.102 35.9719 25.4996C35.9719 25.4996 38.9779 26.3027 41.2825 28.1098C42.8857 26.6039 44.489 26.6039 44.489 26.6039C44.489 26.6039 42.8857 28.1098 43.3867 30.0173C45.7916 32.1255 48.2966 35.1373 48.2966 35.1373C50.9018 33.7318 56.513 34.0329 57.7154 35.338C56.2124 33.4306 54.1082 31.8243 52.505 30.4188C52.3046 29.7161 50.501 27.2063 50.2004 26.9051C50.2004 26.9051 51.9038 27.4071 53.4068 28.8126C53.8076 28.2102 54.7094 27.5075 55.8116 27.3067C56.9138 28.3106 57.1142 29.8165 57.1142 30.0173C56.6132 30.6196 56.1122 30.9208 56.1122 30.9208L58.8176 34.1333M61.523 35.84C65.7314 43.6706 66.7334 53.1075 63.8276 62.4439C63.6272 62.2431 61.4228 59.7333 60.521 58.7294C59.9198 67.8651 57.3146 74.9929 49.499 81.0165C49.499 81.0165 48.7976 78.1051 48.2966 76.298C35.4709 85.8353 24.4489 81.418 21.3427 79.9122C23.7475 68.7686 21.8437 62.3435 20.2405 57.5247C16.8336 63.2471 13.3266 67.5639 9.81962 70.5757C7.41481 64.9537 7.21441 54.4126 9.21841 48.2886C8.61721 48.4894 4.8096 49.6941 2.70539 50.2965C3.50699 44.5741 7.21441 37.0447 11.1222 33.2298C10.6212 33.1294 8.61721 32.8282 7.014 32.6275C8.01601 30.6196 10.8216 26.9051 15.2304 23.3914C15.1302 25.9012 16.032 28.8126 18.7375 30.218C16.9338 27.1059 16.7334 23.291 18.6373 21.2831C20.4409 19.2753 23.5471 19.978 25.5511 21.4839C25.1503 20.3796 24.3487 19.1749 23.2465 18.3718C28.6573 15.862 35.2705 14.3561 42.6853 15.4604C43.7876 16.4643 45.0902 17.8698 45.7916 18.7733C45.7916 18.171 45.6914 16.9663 45.491 15.9624C48.497 16.6651 51.7034 17.8698 55.01 19.5765C49.0982 13.6533 37.1743 11.8463 27.2545 14.7576C24.9499 15.4604 22.7455 16.3639 20.6413 17.3678C18.4369 17.3678 17.034 18.7733 16.2324 19.978C9.81962 24.2949 5.2104 29.9169 3.00599 34.6353C3.50699 34.7357 5.01 34.9365 6.4128 35.1373C3.50699 39.2533 -0.200424 46.9835 -2.34861e-05 54.011C0.601179 53.8102 4.10819 52.7059 5.8116 52.2039C4.9098 58.3278 5.2104 68.6682 9.11821 74.5914C14.1282 70.9773 16.9338 67.2627 19.3387 63.9498C19.9399 66.9616 20.5411 72.3828 18.4369 81.3176C20.1403 82.6227 32.5651 89.2486 46.6934 80.6149L47.8958 85.3333L49.3988 84.3294C58.016 78.7075 61.2224 71.0777 62.4248 64.8533C62.8256 65.2549 64.4288 67.062 64.9298 67.5639C67.1342 61.6408 71.4429 47.3851 61.523 35.84Z" fill="white"/>
</svg>
