<svg width="102" height="102" viewBox="0 0 102 102" fill="none" xmlns="http://www.w3.org/2000/svg">
<path d="M13.9949 38.5877C14.3044 37.1841 15.5484 36.1845 16.9857 36.1845H74.1197C75.5571 36.1845 76.8011 37.1841 77.1106 38.5877L82.6522 63.7198C83.0737 65.6312 81.6186 67.4421 79.6613 67.4421H11.4441C9.48681 67.4421 8.03178 65.6312 8.45324 63.7198L13.9949 38.5877Z" fill="#9EA697" stroke="#42463F" stroke-width="2.49556"/>
<line x1="45.5944" y1="34.9367" x2="45.5944" y2="68.6898" stroke="#42463F" stroke-width="2.49556"/>
<path d="M54.4592 50.8991C54.4592 54.3011 50.781 57.5535 45.5528 57.5535C40.3246 57.5535 36.6464 54.3011 36.6464 50.8991C36.6464 47.4971 40.3246 44.2447 45.5528 44.2447C50.781 44.2447 54.4592 47.4971 54.4592 50.8991Z" stroke="#42463F" stroke-width="2.49556"/>
<path d="M12.9659 44.5751H19.6435C21.4923 44.5751 22.8853 46.2565 22.5413 48.0731L21.1774 55.2759C20.9137 56.6684 19.6969 57.6765 18.2796 57.6765H10.7027" stroke="#42463F" stroke-width="2.49556"/>
<path d="M78.1395 44.5751H71.4618C69.613 44.5751 68.22 46.2565 68.564 48.0731L69.9279 55.2759C70.1916 56.6684 71.4085 57.6765 72.8257 57.6765H80.4026" stroke="#42463F" stroke-width="2.49556"/>
<rect x="3.89906" y="25.7898" width="30.2516" height="20.4865" rx="3.2896" fill="#FFA480" stroke="#42463F" stroke-width="2.49556"/>
<path d="M20.3784 37.4241L20.3784 37.4241L20.56 38.1459L19.9297 37.7501C19.3765 37.4029 18.6734 37.4029 18.1202 37.7501L17.4899 38.1459L17.6715 37.4241C17.8308 36.7907 17.6135 36.122 17.1123 35.7032L16.5411 35.226L17.2837 35.1756C17.9354 35.1315 18.5042 34.7182 18.7476 34.1121L19.0249 33.4214L19.3023 34.1121C19.5457 34.7182 20.1145 35.1315 20.7662 35.1756L21.5087 35.226L20.9376 35.7032C20.4364 36.122 20.2191 36.7907 20.3784 37.4241Z" stroke="#42463F" stroke-width="2.49556"/>
<rect x="56.9547" y="50.4553" width="40.9756" height="28.0126" rx="3.2896" fill="white" stroke="#42463F" stroke-width="2.49556"/>
<circle cx="77.186" cy="64.0085" r="9.66569" fill="#FFA480"/>
<path fill-rule="evenodd" clip-rule="evenodd" d="M77.4426 72.4427C79.5593 72.4427 81.5893 71.6018 83.086 70.1051C84.5828 68.6084 85.4236 66.5783 85.4236 64.4616C85.4236 62.3449 84.5828 60.3149 83.086 58.8182C81.5893 57.3214 79.5593 56.4806 77.4426 56.4806C75.3258 56.4806 73.2958 57.3214 71.7991 58.8182C70.3023 60.3149 69.4615 62.3449 69.4615 64.4616C69.4615 66.5783 70.3023 68.6084 71.7991 70.1051C73.2958 71.6018 75.3258 72.4427 77.4426 72.4427ZM77.4426 74.6194C80.1366 74.6194 82.7202 73.5492 84.6252 71.6442C86.5301 69.7393 87.6003 67.1556 87.6003 64.4616C87.6003 61.7676 86.5301 59.184 84.6252 57.279C82.7202 55.3741 80.1366 54.3039 77.4426 54.3039C74.7486 54.3039 72.1649 55.3741 70.26 57.279C68.355 59.184 67.2848 61.7676 67.2848 64.4616C67.2848 67.1556 68.355 69.7393 70.26 71.6442C72.1649 73.5492 74.7486 74.6194 77.4426 74.6194ZM72.7265 66.2755C72.7265 65.9869 72.8411 65.71 73.0452 65.5059C73.2493 65.3018 73.5262 65.1872 73.8148 65.1872H81.0703C81.359 65.1872 81.6358 65.3018 81.8399 65.5059C82.044 65.71 82.1587 65.9869 82.1587 66.2755C82.1587 67.271 81.5347 68.1895 80.7453 68.8091C79.9181 69.4578 78.7747 69.9033 77.4426 69.9033C76.1104 69.9033 74.967 69.4578 74.1398 68.8091C73.3519 68.1895 72.7265 67.271 72.7265 66.2755ZM80.3448 63.7361C80.0561 63.7361 79.7793 63.6214 79.5752 63.4173C79.3711 63.2132 79.2564 62.9364 79.2564 62.6477V61.1966C79.2564 60.908 79.3711 60.6312 79.5752 60.4271C79.7793 60.223 80.0561 60.1083 80.3448 60.1083C80.6334 60.1083 80.9102 60.223 81.1143 60.4271C81.3184 60.6312 81.4331 60.908 81.4331 61.1966V62.6477C81.4331 62.9364 81.3184 63.2132 81.1143 63.4173C80.9102 63.6214 80.6334 63.7361 80.3448 63.7361ZM73.452 62.6477C73.452 62.9364 73.5667 63.2132 73.7708 63.4173C73.9749 63.6214 74.2517 63.7361 74.5404 63.7361C74.829 63.7361 75.1058 63.6214 75.3099 63.4173C75.514 63.2132 75.6287 62.9364 75.6287 62.6477V61.1966C75.6287 60.908 75.514 60.6312 75.3099 60.4271C75.1058 60.223 74.829 60.1083 74.5404 60.1083C74.2517 60.1083 73.9749 60.223 73.7708 60.4271C73.5667 60.6312 73.452 60.908 73.452 61.1966V62.6477Z" fill="#42463F"/>
<circle cx="45.5256" cy="25.2523" r="3.53528" fill="#9EA697"/>
<circle cx="56.7136" cy="25.2523" r="3.53528" fill="#9EA697"/>
<circle cx="67.9017" cy="25.2523" r="3.53528" fill="#9EA697"/>
<circle cx="36.1672" cy="76.1804" r="3.53528" fill="#9EA697"/>
<circle cx="47.3553" cy="76.1804" r="3.53528" fill="#9EA697"/>
</svg>
