<svg width="426" height="257" viewBox="0 0 426 257" fill="none" xmlns="http://www.w3.org/2000/svg">
<path d="M50.227 75.2111C51.5912 69.024 57.0746 64.618 63.4103 64.618H315.247C321.583 64.618 327.066 69.024 328.43 75.2111L352.857 185.989C354.715 194.414 348.301 202.396 339.674 202.396H38.9838C30.3563 202.396 23.9427 194.414 25.8005 185.989L50.227 75.2111Z" fill="#B4D1EB" stroke="#17324D" stroke-width="11"/>
<line x1="189.512" y1="59.118" x2="189.512" y2="207.896" stroke="#17324D" stroke-width="11"/>
<path d="M228.587 129.478C228.587 144.473 212.374 158.81 189.329 158.81C166.284 158.81 150.071 144.473 150.071 129.478C150.071 114.482 166.284 100.146 189.329 100.146C212.374 100.146 228.587 114.482 228.587 129.478Z" stroke="#17324D" stroke-width="11"/>
<path d="M45.6912 101.602H75.1252C83.2745 101.602 89.4144 109.014 87.8982 117.021L81.8864 148.77C80.7241 154.908 75.3603 159.351 69.1133 159.351H35.7157" stroke="#17324D" stroke-width="11"/>
<path d="M332.966 101.602H303.532C295.382 101.602 289.242 109.014 290.758 117.021L296.77 148.77C297.933 154.908 303.296 159.351 309.543 159.351H342.941" stroke="#17324D" stroke-width="11"/>
<rect x="5.72656" y="18.8002" width="133.344" height="90.3008" rx="14.5" fill="white" stroke="#17324D" stroke-width="11"/>
<path d="M68.4105 71.5193L65.6319 73.2637L66.4323 70.0821C67.1347 67.2903 66.177 64.3427 63.9677 62.4969L61.4501 60.3934L64.7233 60.1714C67.5956 59.9767 70.1029 58.155 71.1757 55.4835L72.3983 52.439L73.6208 55.4834C73.6208 55.4835 73.6208 55.4835 73.6208 55.4835C74.6936 58.155 77.201 59.9767 80.0733 60.1714L83.3465 60.3934L80.8288 62.4969C78.6196 64.3427 77.6619 67.2902 78.3642 70.0821L79.1646 73.2637L76.3861 71.5193C73.9479 69.9886 70.8487 69.9886 68.4105 71.5193L71.3349 76.1774L68.4105 71.5193Z" stroke="#17324D" stroke-width="11"/>
<rect x="239.587" y="127.521" width="180.614" height="123.475" rx="14.5" fill="white" stroke="#17324D" stroke-width="11"/>
<path fill-rule="evenodd" clip-rule="evenodd" d="M329.894 224.438C339.224 224.438 348.172 220.732 354.769 214.134C361.367 207.537 365.073 198.589 365.073 189.259C365.073 179.929 361.367 170.981 354.769 164.383C348.172 157.786 339.224 154.08 329.894 154.08C320.564 154.08 311.616 157.786 305.018 164.383C298.421 170.981 294.714 179.929 294.714 189.259C294.714 198.589 298.421 207.537 305.018 214.134C311.616 220.732 320.564 224.438 329.894 224.438ZM329.894 234.032C341.768 234.032 353.157 229.315 361.553 220.919C369.95 212.522 374.667 201.133 374.667 189.259C374.667 177.384 369.95 165.996 361.553 157.599C353.157 149.202 341.768 144.485 329.894 144.485C318.019 144.485 306.631 149.202 298.234 157.599C289.837 165.996 285.12 177.384 285.12 189.259C285.12 201.133 289.837 212.522 298.234 220.919C306.631 229.315 318.019 234.032 329.894 234.032ZM309.106 197.254C309.106 195.982 309.611 194.762 310.511 193.862C311.411 192.962 312.631 192.457 313.903 192.457H345.884C347.157 192.457 348.377 192.962 349.276 193.862C350.176 194.762 350.681 195.982 350.681 197.254C350.681 201.642 347.931 205.691 344.451 208.422C340.806 211.281 335.765 213.245 329.894 213.245C324.022 213.245 318.982 211.281 315.336 208.422C311.863 205.691 309.106 201.642 309.106 197.254ZM342.686 186.061C341.414 186.061 340.194 185.555 339.294 184.656C338.394 183.756 337.889 182.536 337.889 181.264V174.867C337.889 173.595 338.394 172.375 339.294 171.475C340.194 170.576 341.414 170.07 342.686 170.07C343.958 170.07 345.179 170.576 346.078 171.475C346.978 172.375 347.483 173.595 347.483 174.867V181.264C347.483 182.536 346.978 183.756 346.078 184.656C345.179 185.555 343.958 186.061 342.686 186.061ZM312.304 181.264C312.304 182.536 312.809 183.756 313.709 184.656C314.609 185.555 315.829 186.061 317.101 186.061C318.374 186.061 319.594 185.555 320.493 184.656C321.393 183.756 321.898 182.536 321.898 181.264V174.867C321.898 173.595 321.393 172.375 320.493 171.475C319.594 170.576 318.374 170.07 317.101 170.07C315.829 170.07 314.609 170.576 313.709 171.475C312.809 172.375 312.304 173.595 312.304 174.867V181.264Z" fill="#17324D"/>
<circle cx="189.209" cy="16.4309" r="15.5829" fill="#B4D1EB"/>
<circle cx="238.524" cy="16.4309" r="15.5829" fill="#B4D1EB"/>
<circle cx="287.839" cy="16.4309" r="15.5829" fill="#B4D1EB"/>
<circle cx="147.959" cy="240.913" r="15.5829" fill="#B4D1EB"/>
<circle cx="197.274" cy="240.913" r="15.5829" fill="#B4D1EB"/>
</svg>
