<svg width="414" height="404" viewBox="0 0 414 404" fill="none" xmlns="http://www.w3.org/2000/svg">
<path d="M413.016 173.551V231.73C413.016 233.827 412.317 235.836 410.919 237.758C409.522 239.68 407.775 240.816 405.678 241.165L369.862 246.586C362.067 247.766 355.317 254.13 352.22 261.379C349.049 268.798 349.876 276.537 354.751 282.965C360.168 290.108 366.923 298.625 375.016 308.517C376.763 310.613 377.637 312.797 377.637 315.068C377.637 317.34 376.85 319.349 375.278 321.096C370.561 327.56 361.912 336.995 349.333 349.399C336.754 361.804 328.542 368.006 324.699 368.006C322.602 368.006 320.331 367.22 317.885 365.648L291.914 345.322C285.707 340.465 277.259 339.814 269.986 342.85C262.719 345.884 257.3 352.33 256.292 360.14C254.114 377.017 252.107 388.987 250.271 396.047C249.048 400.939 245.903 403.385 240.837 403.385H182.658C180.212 403.385 178.071 402.643 176.237 401.158C174.402 399.673 173.398 397.795 173.223 395.523L167.786 359.792C166.62 352.134 160.856 345.771 153.689 342.832C146.396 339.84 138.306 340.636 132.027 345.401L105.347 365.648C103.6 367.22 101.416 368.006 98.7956 368.006C96.3497 368.006 94.1658 367.045 92.2439 365.123C70.2302 345.206 55.8164 330.53 49.0026 321.096C47.7796 319.349 47.1681 317.34 47.1681 315.068C47.1681 312.972 47.867 310.963 49.2647 309.041C51.8854 305.372 56.3405 299.563 62.6302 291.613C64.7445 288.941 66.6812 286.471 68.4402 284.203C73.636 277.505 73.8937 268.118 70.6376 260.292C67.2989 252.267 60.5118 246.377 51.9129 245.109L18.0785 240.117C15.8072 239.767 13.9728 238.675 12.5751 236.841C11.1774 235.006 10.4785 232.953 10.4785 230.682V172.503C10.4785 170.406 11.1774 168.397 12.5751 166.475C13.9728 164.554 15.6325 163.418 17.5544 163.068L53.2123 157.701C61.2074 156.497 67.5726 151.008 70.7349 143.567C73.8493 136.239 73.6542 127.48 68.8637 121.12C63.1315 113.51 56.3364 104.955 48.4785 95.4548C46.7313 93.3582 45.8578 91.2617 45.8578 89.1651C45.8578 87.418 46.644 85.4088 48.2164 83.1376C52.7589 76.8479 61.3635 67.4571 74.0302 54.9652C86.6968 42.4733 94.952 36.2273 98.7956 36.2273C101.067 36.2273 103.338 37.1008 105.609 38.848L131.57 58.977C137.788 63.7981 146.219 64.4286 153.479 61.3956C160.763 58.3526 166.195 51.8905 167.206 44.0615C169.383 27.2009 171.388 15.2424 173.223 8.18594C174.446 3.294 177.591 0.848022 182.658 0.848022H240.837C243.283 0.848022 245.423 1.59055 247.257 3.07561C249.092 4.56066 250.097 6.43882 250.271 8.71008L255.705 44.4172C256.873 52.0901 262.648 58.4646 269.828 61.411C277.111 64.3994 285.187 63.6192 291.474 58.8819L318.409 38.5859C319.982 37.0135 322.078 36.2273 324.699 36.2273C326.97 36.2273 329.154 37.1008 331.25 38.848C353.788 59.6387 368.202 74.4893 374.492 83.3996C375.715 84.7973 376.326 86.7192 376.326 89.1651C376.326 91.2617 375.627 93.2709 374.23 95.1927C371.609 98.8617 367.154 104.671 360.864 112.62C358.745 115.299 356.804 117.774 355.042 120.045C349.84 126.752 349.487 136.151 352.768 143.979C356.088 151.9 362.841 157.603 371.331 158.902L405.416 164.117C407.687 164.466 409.522 165.558 410.919 167.393C412.317 169.227 413.016 171.28 413.016 173.551Z" fill="#B4D1EB"/>
<rect x="5.72656" y="151.214" width="215.792" height="136.697" rx="14.5" fill="white" stroke="#17324D" stroke-width="11"/>
<rect x="94.2583" y="75.8362" width="97.9175" height="59.8264" rx="14.5" fill="white" stroke="#17324D" stroke-width="11"/>
<rect x="29.5361" y="203.954" width="97.9175" height="59.8264" rx="14.5" fill="white" stroke="#17324D" stroke-width="11"/>
<path d="M258.355 188.286C258.355 182.145 262.225 176.669 268.013 174.619L303.143 162.173C303.468 162.058 303.81 162.299 303.81 162.645V276.479C303.81 276.825 303.468 277.066 303.143 276.951L268.013 264.506C262.225 262.455 258.355 256.979 258.355 250.838V188.286Z" fill="white" stroke="#17324D" stroke-width="11"/>
<rect x="222.869" y="187.083" width="35.6965" height="64.9583" fill="white" stroke="#17324D" stroke-width="11"/>
</svg>
