<svg width="102" height="103" viewBox="0 0 102 103" fill="none" xmlns="http://www.w3.org/2000/svg">
<path d="M96.0207 61.679L96.0295 61.6776L96.0384 61.6762C96.8622 61.5389 97.5223 61.0831 98.0007 60.4254C98.4462 59.8128 98.7058 59.1145 98.7058 58.3521V45.1531C98.7058 44.3707 98.4584 43.6503 97.9847 43.0286C97.4801 42.3664 96.7877 41.9534 95.9641 41.8267L95.9631 41.8265L88.2304 40.6434C86.7544 40.4175 85.5508 39.4276 84.9442 37.9801C84.3277 36.5092 84.4439 34.8555 85.3016 33.7497C85.6986 33.2379 86.1365 32.6794 86.6153 32.0743C88.0412 30.2721 89.0669 28.9356 89.6803 28.0772C90.1237 27.4657 90.3821 26.769 90.3821 26.0085C90.3821 25.2789 90.2028 24.552 89.7146 23.9638C88.1883 21.8197 84.8358 18.3847 79.7694 13.7111L79.7472 13.6906L79.724 13.6712C79.078 13.1329 78.3192 12.7986 77.4694 12.7986C76.6484 12.7986 75.8734 13.0448 75.2617 13.6195L69.2097 18.1798C68.1467 18.9808 66.7668 19.1313 65.4765 18.6018C64.1686 18.0651 63.1942 16.9314 63.0032 15.676L61.7764 7.61424C61.6992 6.77837 61.3049 6.07051 60.6554 5.54478C60.0174 5.02824 59.2627 4.77211 58.4438 4.77211H45.2447C44.4766 4.77211 43.7296 4.95974 43.1108 5.44107C42.493 5.92155 42.1284 6.59714 41.9417 7.33973C41.505 9.02119 41.0427 11.7989 40.5491 15.6222C40.3807 16.9266 39.4651 18.057 38.1624 18.6012C36.8585 19.146 35.4138 19.0053 34.3898 18.2114L28.5002 13.6448L28.4965 13.642C27.8272 13.1271 27.0616 12.7986 26.219 12.7986C25.7139 12.7986 25.2278 12.991 24.8269 13.198C24.4003 13.4182 23.9342 13.7277 23.4364 14.1044C22.439 14.859 21.2096 15.9635 19.7579 17.3952C16.8816 20.2319 14.8658 22.4231 13.7714 23.9384L13.7644 23.9481L13.7576 23.958C13.3364 24.5664 13.0091 25.2637 13.0091 26.0085C13.0091 26.8394 13.36 27.5769 13.8803 28.2018C15.654 30.3462 17.1833 32.2719 18.4699 33.9801C19.2398 35.0022 19.3296 36.514 18.7486 37.8812C18.1732 39.235 17.0502 40.1671 15.699 40.3705L7.60928 41.5883L7.59122 41.591L7.57325 41.5942C6.77054 41.7402 6.14482 42.2136 5.6878 42.842C5.2423 43.4546 4.98265 44.1529 4.98265 44.9153V58.1143C4.98265 58.8967 5.23009 59.617 5.70377 60.2387C6.20836 60.901 6.90081 61.314 7.72434 61.4407L7.73167 61.4418L15.4077 62.5743C16.8904 62.7931 18.1064 63.8109 18.7229 65.2927C19.34 66.776 19.2347 68.4246 18.3842 69.5211C17.9879 70.032 17.5509 70.5893 17.0732 71.1931C15.6475 72.995 14.6218 74.3315 14.0084 75.1899C13.5648 75.8015 13.3064 76.4983 13.3064 77.2589C13.3064 78.0035 13.5114 78.703 13.9395 79.3145L13.9446 79.3218L13.9497 79.3289C15.5764 81.5812 18.9287 84.9808 23.9072 89.4862C24.5369 90.1059 25.3201 90.4688 26.219 90.4688C27.0549 90.4688 27.8314 90.2153 28.4664 89.6626L34.4837 85.0963C35.5446 84.2912 36.9259 84.1381 38.2172 84.6677C39.5219 85.2029 40.4939 86.3339 40.6844 87.5859L41.9121 95.6531C41.9892 96.489 42.3836 97.1969 43.033 97.7226C43.6711 98.2391 44.4257 98.4953 45.2447 98.4953H58.4438C59.2118 98.4953 59.9588 98.3076 60.5777 97.8263C61.1955 97.3458 61.5601 96.6701 61.7468 95.9275C62.1837 94.245 62.6463 91.4649 63.1403 87.6378C63.3081 86.3378 64.2206 85.2112 65.5191 84.6691C66.8244 84.124 68.2708 84.2684 69.292 85.0675L75.1841 89.6787L75.2279 89.713L75.2747 89.7431C75.9511 90.1779 76.6908 90.4688 77.4694 90.4688C77.9731 90.4688 78.4578 90.2781 78.8582 90.072C79.2839 89.853 79.7483 89.5453 80.2439 89.171C81.2366 88.4212 82.4588 87.3239 83.9008 85.9019C86.7314 83.1106 88.7422 80.9277 89.8802 79.3793C90.3995 78.7807 90.6794 78.0595 90.6794 77.2589C90.6794 76.4112 90.3466 75.654 89.8106 75.0091C87.9817 72.7736 86.46 70.8547 85.2434 69.2505C84.4074 68.148 84.2604 66.8512 84.8165 65.5501C85.3982 64.1888 86.6339 63.0997 87.895 62.9088L96.0207 61.679Z" fill="#9EA697" stroke="#42463F" stroke-width="2.39994"/>
<rect x="5.10453" y="40.0854" width="48.9564" height="31.0122" rx="3.2896" fill="#FFA480" stroke="#42463F" stroke-width="2.49556"/>
<rect x="25.1897" y="22.9846" width="22.2144" height="13.5728" rx="3.2896" fill="#FFA480" stroke="#42463F" stroke-width="2.49556"/>
<rect x="10.5061" y="52.0506" width="22.2144" height="13.5728" rx="3.2896" fill="white" stroke="#42463F" stroke-width="2.49556"/>
<path d="M62.4182 48.496C62.4182 47.1027 63.296 45.8605 64.6093 45.3952L72.579 42.5718C72.6529 42.5456 72.7303 42.6004 72.7303 42.6787V68.5043C72.7303 68.5826 72.6529 68.6374 72.579 68.6112L64.6093 65.7878C63.296 65.3225 62.4182 64.0803 62.4182 62.687V48.496Z" fill="#FFA480" stroke="#42463F" stroke-width="2.49556"/>
<rect x="54.3673" y="48.223" width="8.09844" height="14.737" fill="white" stroke="#42463F" stroke-width="2.49556"/>
</svg>
