<svg width="197" height="48" viewBox="0 0 197 48" fill="none" xmlns="http://www.w3.org/2000/svg">
<path d="M23.4114 46.8068V38.8568C23.4114 32.8614 22.6841 31.1227 20.3841 26.1295L8.46136 0H0L15.3023 33.4023V46.8068H23.4114ZM28.7114 22.6295L38.6591 0H30.4136L20.4659 22.6295H28.7114ZM113.52 47.4864C117.277 47.4864 120.361 45.7227 122.52 42.4409L122.93 46.8068H130.309V0H122.332V16.9045C120.332 13.8659 117.359 12.2659 113.87 12.2659C106.166 12.2659 100.786 18.8045 100.786 30.1205C100.786 41.2727 106.005 47.4864 113.52 47.4864ZM162.589 44.5295V37.9886C160.1 39.6705 155.936 41.1636 152.043 41.1636C146.205 41.1636 143.989 38.3955 143.664 32.7523H162.914V28.4909C162.914 16.7159 157.748 12.2636 149.773 12.2636C140.041 12.2636 135.418 19.7273 135.418 29.9841C135.418 41.7614 141.177 47.4841 151.395 47.4841C156.477 47.4841 160.236 46.1295 162.589 44.5295ZM76.6136 22.4955C78.1023 20.6773 80.4273 19.1318 83.3182 19.1318C86.1318 19.1318 87.4023 20.3523 87.4023 22.9023V46.8068H95.3773V22.0909C95.3773 15.3614 92.7 12.4023 86.1841 12.4023C81.4273 12.4023 78.6159 14.1659 76.9932 15.7659H76.5909L76.4 12.9477H68.6136V46.8114H76.5909V22.4932H76.6159L76.6136 22.4955ZM62.125 23.7159C62.125 15.4932 57.9614 12.4 49.4977 12.4C44.2545 12.4 40.0364 14.6273 37.6295 16.3614V23.3091C40.1727 21.2182 44.0636 18.8045 48.5796 18.8045C52.3909 18.8045 54.1477 20.1614 54.1477 23.7977V25.9409H52.8773C40.6591 25.9409 35.225 29.9023 35.225 36.9864C35.225 43.525 39.3864 47.2954 45.5523 47.2954C50.2568 47.2954 52.2568 45.75 53.7977 44.1204H54.1205C54.175 44.9909 54.4455 46.1295 54.7159 46.8068H62.5023C62.2333 44.0567 62.0983 41.2951 62.0977 38.5318V23.7159H62.125ZM187.134 46.8068H196.134L185.134 29.3591L194.65 12.9432H186.673L180.916 23.1727L174.482 12.9455H165.455L175.645 29.1705L165.048 46.8068H173.159L179.945 35.3568L187.134 46.8068ZM115.87 18.5864C120.17 18.5864 122.307 22.0341 122.307 29.8205C122.307 37.6909 120.034 41.1386 115.52 41.1386C111.168 41.1386 109.005 37.7727 109.005 30.0932C109.032 22.0886 111.302 18.5864 115.87 18.5864ZM149.639 18.5864C153.586 18.5864 154.802 21.8977 154.802 26.1318V26.8091H143.664C143.852 21.4091 145.8 18.5864 149.639 18.5864ZM54.15 38.7227C53.15 40.2136 51.2591 41.4068 48.4455 41.4068C45.0955 41.4068 43.4182 39.4523 43.4182 36.4977C43.4182 32.5886 46.175 31.2318 53.0159 31.2318H54.1523L54.15 38.7227Z" fill="white"/>
</svg>
