<svg width="102" height="103" viewBox="0 0 102 103" fill="none" xmlns="http://www.w3.org/2000/svg">
<rect x="2.11197" y="17.0566" width="97.5458" height="62.6517" rx="11.6838" stroke="#42463F" stroke-width="2.49556"/>
<rect x="8.12821" y="23.0729" width="85.5134" height="46.3219" rx="6.2389" stroke="#42463F" stroke-width="2.49556"/>
<circle cx="81.618" cy="36.626" r="2.65047" fill="#FFA480" stroke="#42463F" stroke-width="2.49556"/>
<mask id="path-4-inside-1_3469_151" fill="white">
<path d="M76.1605 46.5188C76.1605 43.5046 78.6039 41.0612 81.618 41.0612C84.6322 41.0612 87.0756 43.5046 87.0756 46.5188V46.8828C87.0756 47.6345 86.4661 48.244 85.7144 48.244H77.5217C76.7699 48.244 76.1605 47.6345 76.1605 46.8828V46.5188Z"/>
</mask>
<path d="M76.1605 46.5188C76.1605 43.5046 78.6039 41.0612 81.618 41.0612C84.6322 41.0612 87.0756 43.5046 87.0756 46.5188V46.8828C87.0756 47.6345 86.4661 48.244 85.7144 48.244H77.5217C76.7699 48.244 76.1605 47.6345 76.1605 46.8828V46.5188Z" fill="#FFA480" stroke="#42463F" stroke-width="4.99112" stroke-linejoin="round" mask="url(#path-4-inside-1_3469_151)"/>
<path d="M17.8019 37.4248C18.1114 36.0212 19.3554 35.0216 20.7928 35.0216H64.298C65.7354 35.0216 66.9794 36.0212 67.2889 37.4248L71.2471 55.3761C71.6686 57.2875 70.2136 59.0983 68.2563 59.0983H16.8346C14.8773 59.0983 13.4222 57.2875 13.8437 55.3761L17.8019 37.4248Z" fill="#9EA697" stroke="#42463F" stroke-width="2.49556"/>
<line x1="42.8437" y1="33.7738" x2="42.8437" y2="60.3461" stroke="#42463F" stroke-width="2.49556"/>
<path d="M49.2916 46.3403C49.2916 48.8138 46.5805 51.3135 42.5455 51.3135C38.5104 51.3135 35.7993 48.8138 35.7993 46.3403C35.7993 43.8667 38.5104 41.367 42.5455 41.367C46.5805 41.367 49.2916 43.8667 49.2916 46.3403Z" stroke="#42463F" stroke-width="2.49556"/>
<path d="M16.8913 41.3616H21.3909C23.2397 41.3616 24.6327 43.0431 24.2887 44.8596L23.4526 49.2752C23.1889 50.6677 21.9721 51.6757 20.5548 51.6757H15.1097" stroke="#42463F" stroke-width="2.49556"/>
<path d="M68.1995 41.3616H63.6998C61.851 41.3616 60.4581 43.0431 60.802 44.8596L61.6382 49.2752C61.9018 50.6677 63.1187 51.6757 64.536 51.6757H69.9811" stroke="#42463F" stroke-width="2.49556"/>
<path d="M77.2341 52.3491H85.795" stroke="#FFA480" stroke-width="2.49556" stroke-linecap="round"/>
<path d="M77.2341 55.8673H85.795" stroke="#FFA480" stroke-width="2.49556" stroke-linecap="round"/>
<path d="M25.6093 86.9883H76.1605" stroke="#42463F" stroke-width="2.49556" stroke-linecap="round"/>
<path d="M45.2304 86.9884L45.2304 79.7115" stroke="#42463F" stroke-width="2.49556" stroke-linecap="round"/>
<path d="M56.5393 86.9884L56.5393 79.7115" stroke="#42463F" stroke-width="2.49556" stroke-linecap="round"/>
<path d="M77.2341 59.3856H82.193" stroke="#FFA480" stroke-width="2.49556" stroke-linecap="round"/>
</svg>
