<svg width="60" height="60" viewBox="0 0 60 60" fill="none" xmlns="http://www.w3.org/2000/svg">
<path d="M6.25002 42.5C4.50358 34.2582 4.50358 25.7418 6.25002 17.5C6.47949 16.663 6.92286 15.9002 7.53653 15.2865C8.15021 14.6728 8.91304 14.2295 9.75002 14C23.1586 11.7786 36.8414 11.7786 50.25 14C51.087 14.2295 51.8498 14.6728 52.4635 15.2865C53.0772 15.9002 53.5205 16.663 53.75 17.5C55.4965 25.7418 55.4965 34.2582 53.75 42.5C53.5205 43.337 53.0772 44.0998 52.4635 44.7135C51.8498 45.3272 51.087 45.7705 50.25 46C36.8414 48.2218 23.1586 48.2218 9.75002 46C8.91304 45.7705 8.15021 45.3272 7.53653 44.7135C6.92286 44.0998 6.47949 43.337 6.25002 42.5Z" stroke="#00239F" stroke-width="2" stroke-linecap="round" stroke-linejoin="round"/>
<path d="M25 37.5L37.5 30L25 22.5V37.5Z" stroke="#00239F" stroke-width="2" stroke-linecap="round" stroke-linejoin="round"/>
</svg>
