<svg width="442" height="321" viewBox="0 0 442 321" fill="none" xmlns="http://www.w3.org/2000/svg">
<rect x="5.72656" y="6.34796" width="429.966" height="276.158" rx="51.5" stroke="#17324D" stroke-width="11"/>
<rect x="32.2451" y="32.8665" width="376.928" height="204.179" rx="27.5" stroke="#17324D" stroke-width="11"/>
<circle cx="356.176" cy="92.6066" r="11.6828" fill="white" stroke="#17324D" stroke-width="11"/>
<mask id="path-4-inside-1_3469_49" fill="white">
<path d="M332.12 136.212C332.12 122.927 342.89 112.156 356.176 112.156C369.462 112.156 380.232 122.927 380.232 136.212V137.817C380.232 141.13 377.546 143.817 374.232 143.817H338.12C334.806 143.817 332.12 141.131 332.12 137.817V136.212Z"/>
</mask>
<path d="M332.12 136.212C332.12 122.927 342.89 112.156 356.176 112.156C369.462 112.156 380.232 122.927 380.232 136.212V137.817C380.232 141.13 377.546 143.817 374.232 143.817H338.12C334.806 143.817 332.12 141.131 332.12 137.817V136.212Z" fill="white" stroke="#17324D" stroke-width="22" stroke-linejoin="round" mask="url(#path-4-inside-1_3469_49)"/>
<path d="M74.885 96.1276C76.2492 89.9405 81.7325 85.5345 88.0683 85.5345H279.832C286.168 85.5345 291.651 89.9405 293.015 96.1276L310.462 175.254C312.32 183.679 305.907 191.661 297.279 191.661H70.621C61.9935 191.661 55.5799 183.679 57.4377 175.254L74.885 96.1276Z" fill="#B4D1EB" stroke="#17324D" stroke-width="11"/>
<line x1="185.265" y1="80.0345" x2="185.265" y2="197.161" stroke="#17324D" stroke-width="11"/>
<path d="M213.686 135.425C213.686 146.329 201.736 157.347 183.95 157.347C166.164 157.347 154.214 146.329 154.214 135.425C154.214 124.522 166.164 113.504 183.95 113.504C201.736 113.504 213.686 124.522 213.686 135.425Z" stroke="#17324D" stroke-width="11"/>
<path d="M70.8708 113.48H90.7043C98.8536 113.48 104.994 120.892 103.477 128.899L99.7919 148.362C98.6296 154.5 93.2659 158.943 87.0188 158.943H63.0176" stroke="#17324D" stroke-width="11"/>
<path d="M297.029 113.48H277.195C269.046 113.48 262.906 120.892 264.422 128.899L268.108 148.362C269.27 154.5 274.634 158.943 280.881 158.943H304.882" stroke="#17324D" stroke-width="11"/>
<path d="M336.853 161.911H374.588" stroke="#7CAAD2" stroke-width="11" stroke-linecap="round"/>
<path d="M336.853 177.419H374.588" stroke="#7CAAD2" stroke-width="11" stroke-linecap="round"/>
<path d="M109.299 314.595H332.12" stroke="#17324D" stroke-width="11" stroke-linecap="round"/>
<path d="M195.785 314.595L195.785 282.52" stroke="#17324D" stroke-width="11" stroke-linecap="round"/>
<path d="M245.633 314.595L245.633 282.52" stroke="#17324D" stroke-width="11" stroke-linecap="round"/>
<path d="M336.853 192.927H358.711" stroke="#7CAAD2" stroke-width="11" stroke-linecap="round"/>
</svg>
